# xmcd CD database file
#
# Track frame offsets:
#	150
#	4866
#	19837
#	33006
#	53835
#	66955
#	86992
#	108903
#	120475
#	137393
#	150362
#	163702
#	187553
#	214197
#	232851
#
# Disc length: 3374 seconds
#
# Revision: 0
# Processed by: cddbd v1.5.2PL0 Copyright (c) Steve Scherf et al.
# Submitted via: CDex 1.51
#
DISCID=ae0d2c0f
DTITLE=Paul Tilotson The Love Trio - Lindy Hop Blues:  Live at Jelly Roll
DYEAR=2008
DGENRE=Jazz
TTITLE0=Mildred's Info
TTITLE1=Satin Doll
TTITLE2=Shotgun Boogie
TTITLE3=Dear Old Dad
TTITLE4=Sold Swinga Nova (Soul Bossa Nova)
TTITLE5=Pink Panther
TTITLE6=The Way You Look Tonight
TTITLE7=C Jam Blues
TTITLE8=Big Swinging Taxi (Big Yellow Taxi)
TTITLE9=Tebadadeda
TTITLE10=Easy Does It
TTITLE11=Blackbird
TTITLE12=Lindy Hop Blues
TTITLE13=Tidbits
TTITLE14=Blues for Stephanie
EXTD=YEAR: 2008
EXTT0=
EXTT1=
EXTT2=
EXTT3=
EXTT4=
EXTT5=
EXTT6=
EXTT7=
EXTT8=
EXTT9=
EXTT10=
EXTT11=
EXTT12=
EXTT13=
EXTT14=
PLAYORDER=
